<?xml version="1.0" encoding="UTF-8" standalone="no"?>
<svg width="24px" height="19px" viewBox="0 0 24 19" version="1.1" xmlns="http://www.w3.org/2000/svg" xmlns:xlink="http://www.w3.org/1999/xlink">
    <!-- Generator: Sketch 3.7.1 (28215) - http://www.bohemiancoding.com/sketch -->
    <title>arrow-right - FontAwesome</title>
    <desc>Created with Sketch.</desc>
    <defs></defs>
    <g id="Page-1" stroke="none" stroke-width="1" fill="none" fill-rule="evenodd">
        <g id="32" transform="translate(-8.000000, -11.000000)" fill="#00A5CD">
            <path d="M30.8164263,19.0742284 L23.187511,11.445313 C22.9062606,11.1640627 22.5195414,11 22.1211034,11 C21.7226655,11 21.347665,11.1640627 21.0664147,11.445313 L20.1875074,12.3242203 C19.906257,12.5937519 19.7421943,12.9804711 19.7421943,13.3789091 C19.7421943,13.7773471 19.906257,14.1640663 20.1875074,14.4335978 L23.6211052,17.8789145 L9.37109538,17.8789145 C8.52734438,17.8789145 8,18.5820403 8,19.3789162 L8,20.878918 C8,21.675794 8.52734438,22.3789198 9.37109538,22.3789198 L23.6211052,22.3789198 L20.1875074,25.8125177 C19.906257,26.093768 19.7421943,26.4804872 19.7421943,26.8789252 C19.7421943,27.2773632 19.906257,27.6640824 20.1875074,27.9453327 L21.0664147,28.82424 C21.347665,29.0937716 21.7226655,29.2578343 22.1211034,29.2578343 C22.5195414,29.2578343 22.9062606,29.0937716 23.187511,28.82424 L30.8164263,21.1953247 C31.0976766,20.9140743 31.2500206,20.5273551 31.2500206,20.1289171 C31.2500206,19.7304792 31.0976766,19.3437599 30.8164263,19.0742284 Z" id="arrow-right---FontAwesome"></path>
        </g>
    </g>
</svg>