<svg id="Layer_1" data-name="Layer 1" xmlns="http://www.w3.org/2000/svg" viewBox="0 0 40 40">
  <title>arrow-right-3</title>
  <path d="M485.9,210.4l-0.3-.5-7.6-7.6a1.5,1.5,0,0,0-2.1,0l-0.9.9a1.5,1.5,0,0,0,0,2.1l3.4,3.4H464.2a1.5,1.5,0,0,0-1.5,1.5v1.5a1.5,1.5,0,0,0,1.5,1.5h14.1l-3.4,3.4a1.5,1.5,0,0,0,0,2.1l0.9,0.9a1.5,1.5,0,0,0,2.1,0l7.6-7.6A1.5,1.5,0,0,0,485.9,210.4Z" transform="translate(-454.3 -191)" style="fill: #00a5cd"/>
  <path d="M474.3,194a17,17,0,1,1-17,17,17,17,0,0,1,17-17m0-3a20,20,0,1,0,20,20,20,20,0,0,0-20-20h0Z" transform="translate(-454.3 -191)" style="fill: #00a5cd"/>
</svg>
