<svg id="Layer_1" data-name="Layer 1" xmlns="http://www.w3.org/2000/svg" viewBox="0 0 40 40">
  <title>arrow-left</title>
  <path d="M516.8,213.6l0.3,0.5,7.6,7.6a1.5,1.5,0,0,0,2.1,0l0.9-.9a1.5,1.5,0,0,0,0-2.1l-3.4-3.4h14.1a1.5,1.5,0,0,0,1.5-1.5v-1.5a1.5,1.5,0,0,0-1.5-1.5H524.3l3.4-3.4a1.5,1.5,0,0,0,0-2.1l-0.9-.9a1.5,1.5,0,0,0-2.1,0l-7.6,7.6A1.5,1.5,0,0,0,516.8,213.6Z" transform="translate(-508.3 -193)" style="fill: #00a5cd"/>
  <path d="M528.3,196a17,17,0,1,1-17,17,17,17,0,0,1,17-17m0-3a20,20,0,1,0,20,20,20,20,0,0,0-20-20h0Z" transform="translate(-508.3 -193)" style="fill: #00a5cd"/>
</svg>
