<svg id="Layer_1" data-name="Layer 1" xmlns="http://www.w3.org/2000/svg" viewBox="0 0 624.8 441.7">
  <title>butterfly</title>
  <path d="M505,352c0.2,2.3.4,4.7,0.5,7s-0.6,2.7-.4,4c1.1,7.8,2.6,15.6,3.4,23.5,1.3,12.3,2,24.7,3.1,37,0.4,4,1.9,8,1.8,12-0.1,8.9,2.4,17.9-1.8,26.5-1.4,2.9-3.4,4.7-6.6,4.9s-7-.1-10.5.1-4.2-.9-5.7-3.4c-2.7-4.6-4.4-9.2-3.9-14.6s0.9-9.3,1-14q0.6-38.2,1-76.5c0-1.9-.7-3.8-1.1-5.7l-1.3-.2c-1.2,1.5-2.8,2.7-3.5,4.4-3.3,8.8-6.9,17.5-9.5,26.5-7.9,27.8-15.4,55.7-23.1,83.5-3.1,11.2-10.3,19-21,23.5a98.6,98.6,0,0,1-40.5,7.8c-19.3-.3-37.2-4-54-13.7-10.1-5.8-20.8-11.3-28.3-20.2-12.7-15.1-26-30-32.1-49.4-2.6-8.1-5.7-16.2-6.8-24.5-1.8-13.2,1.3-26,6.9-37.9,6.7-14.2,17.8-24.9,30.4-34s26.3-18.7,39.5-28.1a40.5,40.5,0,0,0,3.4-3l-0.3-1.3c-2.2-.4-4.5-1.2-6.6-1.1-5.7.4-11.3,1.3-17,1.9-7.3.7-14.7,1-22,2.1-11.1,1.7-22,2.9-33,0-9-2.4-16.8-6.2-21-15.1-2.7-5.8-5.2-11.6-7.5-17.5s-5.5-12.5-6.3-19c-1.2-10.3-3.6-19.9-8.7-29-3.1-5.6-5.5-11.6-8.1-17.5-1.1-2.6-1.8-5.4-3.1-8s-3.7-6.3-5.4-9.5-2.8-6.8-5.1-9.4c-6.9-7.8-14.2-15.1-21.4-22.6-4.2-4.4-7.4-9.3-8.6-15.5s-3.3-13.3-4.9-20c-2.3-9.7,3.7-21.9,13-25.4s17.5-6,27-5.1,18.1,0.7,26.4,3.2c19.9,6.1,39.6,13,58.1,22.8,16.8,8.9,34,17.3,49.9,27.7s30.2,22.3,44.6,34.3q28.8,24.3,56.5,50c10.4,9.7,19.9,20.4,29.5,31,2.1,2.3,3.5,3.3,6.1,1.4l1.5-.5a3.6,3.6,0,0,1-1-1.5c0.3-5.7.6-11.3,1-17s2.4-7.4,7.5-8a32.1,32.1,0,0,1,7,0c3.3,0.3,6.9,3.9,7,7,0.1,4.7.6,9.4-.2,14s0.7,4.4,3.2,5.6,3.9-1,5-3a32.3,32.3,0,0,1,4-6c12.4-13.7,24.8-27.5,37.5-41s23.8-25.2,36-37.5c9.2-9.3,18.3-18.9,28.6-26.9A489.5,489.5,0,0,1,705,75.1a254.3,254.3,0,0,1,28.5-11.9c6.5-2.2,13.7-2.2,20.4-3.8,11.9-2.7,22,.7,28.5,10.6,8.2,12.4,8.5,25.9,3.9,39.4C781,125.2,771.5,138.9,763,153c-3.4,5.6-7.9,10.9-9.8,17.1-5.1,17.1-12.4,33.6-15.4,51.4-1.9,11.4-5.2,22.6-7.3,34-1.5,8.2-6.9,13-13.7,15.7a56.1,56.1,0,0,1-18.9,3.6c-13.1.4-26.3,0.2-39.5-.4-9.4-.4-18.7-1.9-28-2.9h-3l2.4,0.5c-0.9,6.6,4.5,8.3,8.7,10.4,8,4,16.6,6.9,24.4,11.2,15.2,8.4,31.1,16.5,41.8,30.6,12.8,16.8,19.1,36.5,15.5,57.8-2.3,13.6-7.5,26.6-13.8,39-10.2,20.2-26.3,35.1-44.5,48a126.2,126.2,0,0,1-52.1,21.4c-10,1.7-20.8.7-30.9-.9-14.8-2.4-24-12.7-29.4-26-6.5-16-12-32.3-18.1-48.4s-13.2-34-20.1-51c-1-2.6-3.2-4.7-4.9-7" transform="translate(-165.5 -57.5)" style="fill: #29abe2;stroke: #000;stroke-linecap: round;stroke-linejoin: round;stroke-width: 2px"/>
</svg>
