<svg id="Layer_1" data-name="Layer 1" xmlns="http://www.w3.org/2000/svg" viewBox="0 0 182.6 26.2">
  <title>danielmoi-name</title>
  <g>
    <path d="M19.4,44V18.6h8.9c7.3,0,11.6,5.2,11.6,12.7S35.7,44,28.3,44H19.4ZM33.6,31.3c0-4.7-1.8-7.3-5.2-7.3H25.6V38.6h2.8C31.6,38.6,33.6,35.8,33.6,31.3Z" transform="translate(-19.4 -18.2)" style="fill: #fff"/>
    <path d="M55.7,44l-0.9-3.9H47.4l-1,3.9H39.8l7.5-25.3h7.4L62.3,44H55.7ZM51.1,25l-2.5,9.7h4.9Z" transform="translate(-19.4 -18.2)" style="fill: #fff"/>
    <path d="M78.8,44L71,30.4V44H64.8V18.6h6.2l7.4,12.9V18.6h6.2V44H78.8Z" transform="translate(-19.4 -18.2)" style="fill: #fff"/>
    <path d="M88.7,44V18.6h6.2V44H88.7Z" transform="translate(-19.4 -18.2)" style="fill: #fff"/>
    <path d="M98.9,44V18.6h15.3V24H105v4.4h8.9v5.4H105v4.8h9.2V44H98.9Z" transform="translate(-19.4 -18.2)" style="fill: #fff"/>
    <path d="M117.5,44V18.6h6.2v20h8.2V44H117.5Z" transform="translate(-19.4 -18.2)" style="fill: #fff"/>
    <path d="M161.5,44V28.7L156.3,44H154l-5.2-15.3V44h-6.2V18.6h8.1l4.4,13,4.4-13h8.1V44h-6.1Z" transform="translate(-19.4 -18.2)" style="fill: #fff"/>
    <path d="M170.6,31.3c0-7.6,4.3-13.1,11.2-13.1s11.1,5.5,11.1,13.1-4.3,13.1-11.1,13.1S170.6,39,170.6,31.3Zm16,0c0-4.4-1.7-7.7-4.9-7.7s-4.9,3.2-4.9,7.7,1.7,7.7,4.9,7.7S186.6,35.7,186.6,31.3Z" transform="translate(-19.4 -18.2)" style="fill: #fff"/>
    <path d="M195.8,44V18.6H202V44h-6.2Z" transform="translate(-19.4 -18.2)" style="fill: #fff"/>
  </g>
</svg>
