<svg id="Layer_1" data-name="Layer 1" xmlns="http://www.w3.org/2000/svg" viewBox="0 0 500 808.1">
  <title>factory-2</title>
  <g>
    <g id="body">
      <path d="M84.9,89.8a10.9,10.9,0,0,1,7.3,1.9,4.5,4.5,0,0,1-1.1,8,25.6,25.6,0,0,1-14.9.7,5.5,5.5,0,0,1-4-4.8l-0.4-4" style="fill: #534741;stroke: #000;stroke-miterlimit: 10;stroke-width: 0.5937868408577514px"/>
      <path d="M55.3,89.8a10.9,10.9,0,0,0-7.3,1.9,4.5,4.5,0,0,0,1.1,8,25.6,25.6,0,0,0,14.9.7,5.5,5.5,0,0,0,4-4.8l0.4-4" style="fill: #534741;stroke: #000;stroke-miterlimit: 10;stroke-width: 0.5937868408577514px"/>
      <path d="M96.5,69.6a37,37,0,0,1-6.3,21c-13,2.3-27.5,3.2-40,0a37,37,0,0,1-6.3-21c0-17.9,11.8-32.4,26.3-32.4S96.5,51.7,96.5,69.6Z" style="fill: #39b54a;stroke: #000;stroke-miterlimit: 10;stroke-width: 0.5937868408577514px"/>
      <g>
        <ellipse cx="63.5" cy="51.2" rx="4.4" ry="5.2" style="fill: #fff;stroke: #000;stroke-miterlimit: 10;stroke-width: 0.5937868408577514px"/>
        <ellipse cx="64.2" cy="52.7" rx="1.9" ry="2.2" style="stroke: #000;stroke-miterlimit: 10;stroke-width: 0.5937868408577514px"/>
      </g>
      <g>
        <ellipse cx="74.7" cy="51.2" rx="4.4" ry="5.2" style="fill: #fff;stroke: #000;stroke-miterlimit: 10;stroke-width: 0.5937868408577514px"/>
        <ellipse cx="74" cy="52.3" rx="1.9" ry="2.2" style="stroke: #000;stroke-miterlimit: 10;stroke-width: 0.5937868408577514px"/>
      </g>
      <g>
        <path d="M59,60L59.6,65h4.5l-4.2-5.4A0.5,0.5,0,0,0,59,60Z" style="fill: #fff;stroke: #000;stroke-miterlimit: 10;stroke-width: 0.5937868408577514px"/>
        <path d="M78.7,65L79.3,60a0.5,0.5,0,0,0-.9-0.4L74.2,65h4.5Z" style="fill: #fff;stroke: #000;stroke-miterlimit: 10;stroke-width: 0.5937868408577514px"/>
        <line x1="64" y1="65.5" x2="74" y2="65.5" style="fill: #fff;stroke: #000;stroke-miterlimit: 10"/>
      </g>
      <line x1="75" y1="36.1" x2="75" y2="36.1" style="fill: #c1272d;stroke: #000;stroke-miterlimit: 10;stroke-width: 0.5937868408577514px"/>
    </g>
    <g id="left-arm">
      <path d="M53.1,67.4s3.8,8,0,11.9-14.7,1.2-13.6-6c0.6-3.6,7.6-7.5,7.6-7.5" style="fill: #39b54a;stroke: #000;stroke-miterlimit: 10;stroke-width: 0.5937868408577514px"/>
    </g>
    <g id="hat">
      <path d="M85.2,38.9A20.6,20.6,0,0,1,81.2,40" style="fill: #c1272d;stroke: #000;stroke-miterlimit: 10;stroke-width: 0.5937868408577514px"/>
      <path d="M68.5,37.1a13,13,0,0,1-2-1.7" style="fill: #c1272d;stroke: #000;stroke-miterlimit: 10;stroke-width: 0.5937868408577514px"/>
      <path d="M81.2,40c-5.9,1-9.7-1.2-12.7-2.9h0C68.5,36.9,79.3,19.8,81.2,40Z" style="fill: #c1272d;stroke: #000;stroke-miterlimit: 10"/>
    </g>
    <g id="arm-right">
      <path d="M88.2,67.4s-3.8,8,0,11.9,14.7,1.2,13.6-6c-0.6-3.6-7.6-7.5-7.6-7.5" style="fill: #39b54a;stroke: #000;stroke-miterlimit: 10;stroke-width: 0.5937868408577514px"/>
    </g>
  </g>
  <rect width="500" height="808.15" style="fill: #323232"/>
  <path d="M146.3,30.1H38.1V144.6h85.1l-14-28.2h37.2V101.2h28.2V24.6a5.3,5.3,0,0,0-7.6-4.7Z" style="stroke: #000;stroke-miterlimit: 10;stroke-width: 1.094522061378977px"/>
  <rect x="154.4" y="101.2" width="228.3" height="15.1" style="fill: none;stroke: #f15a24;stroke-miterlimit: 10;stroke-width: 0.8907871125625523px"/>
  <g>
    <circle cx="154.4" cy="108.8" r="10" style="fill: #666"/>
    <path d="M154.4,98.8h-2a10,10,0,0,0-4,1.8l1.6,2.1a7.3,7.3,0,0,1,4.5-1.5V98.8h0Zm-9.6,7.3a10,10,0,0,0-.3,1.9h0.1a9.9,9.9,0,0,0,.6,2.1l2.4-1a7.5,7.5,0,0,1-.3-4.7l-2.5-.7h0Zm5.8,9-1.3,2.2,1.6,0.8h4.6l-0.3-2.6h-0.8a7.4,7.4,0,0,1-3.8-1.1h0Zm11.1-5.1a7.4,7.4,0,0,1-2.2,4.2l1.8,1.9h0.8a10,10,0,0,0,1.2-1.9H164a9.9,9.9,0,0,0,.3-1.2l-2.6-.4h0Zm-3.1-10.3-1.1,2.4a7.5,7.5,0,0,1,3.4,3.3l2.3-1.2a10,10,0,0,0-1.3-1.9h-0.3a10,10,0,0,0-3-2.2h0Z" style="fill: #f15a24"/>
  </g>
  <g>
    <circle cx="382.1" cy="108.8" r="10" style="fill: #666"/>
    <path d="M382.1,98.8h-2a10,10,0,0,0-4,1.8l1.6,2.1a7.3,7.3,0,0,1,4.5-1.5V98.8h0Zm-9.6,7.3a10,10,0,0,0-.3,1.9h0.1a9.9,9.9,0,0,0,.6,2.1l2.4-1a7.5,7.5,0,0,1-.3-4.7l-2.5-.7h0Zm5.8,9-1.3,2.2,1.6,0.8h4.6l-0.3-2.6h-0.8a7.4,7.4,0,0,1-3.8-1.1h0Zm11.1-5.1a7.4,7.4,0,0,1-2.2,4.2l1.8,1.9h0.8a10,10,0,0,0,1.2-1.9h0.7a9.9,9.9,0,0,0,.3-1.2l-2.6-.4h0Zm-3.1-10.3-1.1,2.4a7.5,7.5,0,0,1,3.4,3.3l2.3-1.2a10,10,0,0,0-1.3-1.9h-0.3a10,10,0,0,0-3-2.2h0Z" style="fill: #f15a24"/>
  </g>
  <rect x="283.8" y="190.1" width="108.3" height="86.19" transform="translate(675.9 466.4) rotate(180)" style="stroke: #000;stroke-miterlimit: 10;stroke-width: 1.2052106401996394px"/>
  <polygon points="283.8 190.1 255.6 176.1 255.6 261.2 283.8 261.2 283.8 190.1" style="stroke: #000;stroke-miterlimit: 10;stroke-width: 1.094522061378977px"/>
  <polygon points="321 276.3 307 304.6 392.1 304.6 392.1 276.3 321 276.3" style="stroke: #000;stroke-miterlimit: 10;stroke-width: 1.094522061378977px"/>
  <rect x="47.4" y="261.2" width="228.3" height="15.1" transform="translate(323.1 537.5) rotate(180)" style="fill: none;stroke: #f15a24;stroke-miterlimit: 10;stroke-width: 0.8907871125625523px"/>
  <g>
    <circle cx="275.7" cy="268.8" r="10" style="fill: #666"/>
    <path d="M275.7,258.8h-6l1.6,2.1a7.3,7.3,0,0,1,4.5-1.5v-2.6h0Zm-9.6,7.3a10,10,0,0,0-.3,1.9h0a9.9,9.9,0,0,0,.5,2.3h0.1l2.4-1a7.5,7.5,0,0,1-.3-4.7l-2.5-.7h0Zm5.8,9-1.3,2.2a9.9,9.9,0,0,0,2.6,1.1h3.6l-0.3-2.6h-0.8a7.4,7.4,0,0,1-3.8-1.1h0ZM283,270a7.4,7.4,0,0,1-2.2,4.2l1.8,1.9,0.3-.3h0.7a10,10,0,0,0,2-4.6L283,270h0Zm-3.1-10.3-1.1,2.4a7.5,7.5,0,0,1,3.4,3.3l2.3-1.2A10,10,0,0,0,283,262h-1.7l-1.4-.8h0Z" style="fill: #f15a24"/>
  </g>
  <g>
    <circle cx="48.1" cy="268.8" r="10" style="fill: #666"/>
    <path d="M48.1,258.8H46.3a9.9,9.9,0,0,0-4.1,1.7H42l1.6,2.1a7.3,7.3,0,0,1,4.5-1.5v-2.6h0Zm-9.6,7.3a10,10,0,0,0-.3,1.9h0a9.9,9.9,0,0,0,.6,2.5l2.4-1a7.5,7.5,0,0,1-.3-4.7l-2.5-.7h0Zm5.8,9-1.3,2.2h0.7a9.9,9.9,0,0,0,2.8.9h2.8l-0.3-2.6H48.1a7.4,7.4,0,0,1-3.8-1.1h0ZM55.4,270a7.4,7.4,0,0,1-2.2,4.2l1.8,1.9,0.5-.5h0.4a10,10,0,0,0,1.5-2.6h0.3a9.9,9.9,0,0,0,.3-1.1l-2.6-.4h0Zm-3.1-10.3-1.1,2.4a7.5,7.5,0,0,1,3.4,3.3l2.3-1.2a10,10,0,0,0-4.6-4.4h0Z" style="fill: #f15a24"/>
  </g>
  <rect x="154.4" y="101.2" width="228.3" height="15.1" style="fill: none;stroke: #f15a24;stroke-miterlimit: 10;stroke-width: 0.8907871125625523px"/>
  <g id="wheel-2">
    <circle cx="154.4" cy="108.8" r="10" style="fill: #666"/>
    <path d="M154.4,98.8h-2a10,10,0,0,0-4,1.8l1.6,2.1a7.3,7.3,0,0,1,4.5-1.5V98.8h0Zm-9.6,7.3a10,10,0,0,0-.3,1.9h0.1a9.9,9.9,0,0,0,.6,2.1l2.4-1a7.5,7.5,0,0,1-.3-4.7l-2.5-.7h0Zm5.8,9-1.3,2.2,1.6,0.8h4.6l-0.3-2.6h-0.8a7.4,7.4,0,0,1-3.8-1.1h0Zm11.1-5.1a7.4,7.4,0,0,1-2.2,4.2l1.8,1.9h0.8a10,10,0,0,0,1.2-1.9H164a9.9,9.9,0,0,0,.3-1.2l-2.6-.4h0Zm-3.1-10.3-1.1,2.4a7.5,7.5,0,0,1,3.4,3.3l2.3-1.2a10,10,0,0,0-1.3-1.9h-0.3a10,10,0,0,0-3-2.2h0Z" style="fill: #f15a24"/>
  </g>
  <g id="wheel-1">
    <circle cx="382.1" cy="108.8" r="10" style="fill: #666"/>
    <path d="M382.1,98.8h-2a10,10,0,0,0-4,1.8l1.6,2.1a7.3,7.3,0,0,1,4.5-1.5V98.8h0Zm-9.6,7.3a10,10,0,0,0-.3,1.9h0.1a9.9,9.9,0,0,0,.6,2.1l2.4-1a7.5,7.5,0,0,1-.3-4.7l-2.5-.7h0Zm5.8,9-1.3,2.2,1.6,0.8h4.6l-0.3-2.6h-0.8a7.4,7.4,0,0,1-3.8-1.1h0Zm11.1-5.1a7.4,7.4,0,0,1-2.2,4.2l1.8,1.9a10,10,0,0,0,2.6-4h0.2l0.2-1-2.6-.4h0Zm-3.1-10.3-1.1,2.4a7.5,7.5,0,0,1,3.4,3.3l2.3-1.2h-2.3a10,10,0,0,0-2.3-1.5h0Z" style="fill: #f15a24"/>
  </g>
  <rect x="38.1" y="407.1" width="108.3" height="86.19" style="stroke: #000;stroke-miterlimit: 10;stroke-width: 1.2052106401996394px"/>
  <polygon points="146.3 407.1 174.6 393 174.6 478.1 146.3 478.1 146.3 407.1" style="stroke: #000;stroke-miterlimit: 10;stroke-width: 1.094522061378977px"/>
  <polygon points="109.1 493.3 123.2 521.5 38.1 521.5 38.1 493.3 109.1 493.3" style="stroke: #000;stroke-miterlimit: 10;stroke-width: 1.094522061378977px"/>
  <rect x="154.4" y="478.1" width="228.3" height="15.1" style="fill: none;stroke: #f15a24;stroke-miterlimit: 10;stroke-width: 0.8907871125625523px"/>
  <g>
    <circle cx="154.4" cy="485.7" r="10" style="fill: #666"/>
    <path d="M154.4,475.7h-2a10,10,0,0,0-4,1.8l1.6,2.1a7.3,7.3,0,0,1,4.5-1.5v-2.6h0Zm-9.6,7.3a10,10,0,0,0-.3,1.9h0.1a9.9,9.9,0,0,0,.6,2.1l2.4-1a7.5,7.5,0,0,1-.3-4.7l-2.5-.7h0Zm5.8,9-1.3,2.2,1.6,0.8h4.6l-0.3-2.6h-0.8a7.4,7.4,0,0,1-3.8-1.1h0Zm11.1-5.1a7.4,7.4,0,0,1-2.2,4.2l1.8,1.9h0.8a10,10,0,0,0,1.2-1.9H164a9.9,9.9,0,0,0,.3-1.2l-2.6-.4h0Zm-3.1-10.3-1.1,2.4a7.5,7.5,0,0,1,3.4,3.3l2.3-1.2a10,10,0,0,0-1.3-1.9h-0.3a10,10,0,0,0-3-2.2h0Z" style="fill: #f15a24"/>
  </g>
  <g>
    <circle cx="382.1" cy="485.7" r="10" style="fill: #666"/>
    <path d="M382.1,475.7h-2a10,10,0,0,0-4,1.8l1.6,2.1a7.3,7.3,0,0,1,4.5-1.5v-2.6h0Zm-9.6,7.3a10,10,0,0,0-.3,1.9h0.1a9.9,9.9,0,0,0,.6,2.1l2.4-1a7.5,7.5,0,0,1-.3-4.7l-2.5-.7h0Zm5.8,9-1.3,2.2,1.6,0.8h4.6l-0.3-2.6h-0.8a7.4,7.4,0,0,1-3.8-1.1h0Zm11.1-5.1a7.4,7.4,0,0,1-2.2,4.2L389,493a10,10,0,0,0,2.6-4h0.2l0.2-1-2.6-.4h0Zm-3.1-10.3-1.1,2.4a7.5,7.5,0,0,1,3.4,3.3l2.3-1.2h-2.3a10,10,0,0,0-2.3-1.5h0Z" style="fill: #f15a24"/>
  </g>
  <g id="lights">
    <circle cx="53.4" cy="52.3" r="5.5" style="fill: #f15a24"/>
    <circle cx="70.7" cy="52.3" r="5.5" style="fill: #f15a24"/>
    <circle cx="87.9" cy="52.3" r="5.5" style="fill: #f15a24"/>
    <circle cx="105.1" cy="52.3" r="5.5" style="fill: #f15a24"/>
    <circle cx="122.3" cy="52.3" r="5.5" style="fill: #f15a24"/>
    <circle cx="139.5" cy="52.3" r="5.5" style="fill: #f15a24"/>
  </g>
  <rect x="49.1" y="68.8" width="101" height="19.1" style="fill: #323232"/>
  <path d="M109.2,29.6h-23c0.7-8.5,5.6-15,11.5-15S108.5,21.1,109.2,29.6Z" style="fill: #d4145a"/>
  <path d="M98.3,15.9c-4.6.4-6.3,5.6-6.8,12.3H88.2c0.6-6.9,4.6-12.3,9.4-12.3h0.6Z" style="fill: #999"/>
  <rect id="monster-1" x="313.9" y="29.4" width="58.6" height="71.09" style="fill: #39b54a;stroke: #000;stroke-miterlimit: 10;stroke-width: 0.5937868408577514px"/>
</svg>
